<mxfile>
    <diagram id="MoYPsf-irSDns0FN64ep" name="Page-1">
        <mxGraphModel dx="3439" dy="548" grid="1" gridSize="10" guides="1" tooltips="1" connect="1" arrows="1" fold="0" page="1" pageScale="1" pageWidth="827" pageHeight="1169" math="1" shadow="0">
            <root>
                <mxCell id="0"/>
                <mxCell id="1" parent="0"/>
                <mxCell id="107" value="" style="rounded=1;whiteSpace=wrap;html=1;fontColor=#00FF00;dashed=1;" parent="1" vertex="1">
                    <mxGeometry x="-510" y="630" width="180" height="290" as="geometry"/>
                </mxCell>
                <mxCell id="99" value="" style="rounded=1;whiteSpace=wrap;html=1;fontColor=#00FF00;dashed=1;" parent="1" vertex="1">
                    <mxGeometry x="-970" y="790" width="320" height="180" as="geometry"/>
                </mxCell>
                <mxCell id="55" value="" style="edgeStyle=orthogonalEdgeStyle;rounded=0;orthogonalLoop=1;jettySize=auto;html=1;fontColor=#00FF00;" parent="1" source="53" target="54" edge="1">
                    <mxGeometry relative="1" as="geometry"/>
                </mxCell>
                <mxCell id="53" value="" style="rounded=1;whiteSpace=wrap;html=1;fontColor=#00FF00;dashed=1;" parent="1" vertex="1">
                    <mxGeometry x="256.5" y="370" width="510" height="80" as="geometry"/>
                </mxCell>
                <mxCell id="15" style="edgeStyle=orthogonalEdgeStyle;rounded=0;orthogonalLoop=1;jettySize=auto;html=1;exitX=1;exitY=0.5;exitDx=0;exitDy=0;entryX=0;entryY=0.5;entryDx=0;entryDy=0;fontColor=#00FF00;" parent="1" source="2" target="4" edge="1">
                    <mxGeometry relative="1" as="geometry"/>
                </mxCell>
                <mxCell id="33" value="x" style="edgeLabel;html=1;align=center;verticalAlign=middle;resizable=0;points=[];fontColor=#00FF00;" parent="15" vertex="1" connectable="0">
                    <mxGeometry x="-0.2057" y="1" relative="1" as="geometry">
                        <mxPoint as="offset"/>
                    </mxGeometry>
                </mxCell>
                <mxCell id="2" value="信源编码" style="rounded=0;whiteSpace=wrap;html=1;fontColor=#00FF00;" parent="1" vertex="1">
                    <mxGeometry x="210" y="510" width="30" height="60" as="geometry"/>
                </mxCell>
                <mxCell id="14" style="rounded=0;orthogonalLoop=1;jettySize=auto;html=1;exitX=1;exitY=0.5;exitDx=0;exitDy=0;entryX=0;entryY=0.5;entryDx=0;entryDy=0;fontColor=#00FF00;" parent="1" source="3" target="2" edge="1">
                    <mxGeometry relative="1" as="geometry"/>
                </mxCell>
                <mxCell id="31" value="u" style="edgeLabel;html=1;align=center;verticalAlign=middle;resizable=0;points=[];fontColor=#00FF00;" parent="14" vertex="1" connectable="0">
                    <mxGeometry x="-0.0873" relative="1" as="geometry">
                        <mxPoint x="-11.14" as="offset"/>
                    </mxGeometry>
                </mxCell>
                <mxCell id="45" value="" style="edgeStyle=orthogonalEdgeStyle;rounded=0;orthogonalLoop=1;jettySize=auto;html=1;" parent="1" source="3" target="44" edge="1">
                    <mxGeometry relative="1" as="geometry"/>
                </mxCell>
                <mxCell id="62" value="" style="edgeStyle=orthogonalEdgeStyle;rounded=0;orthogonalLoop=1;jettySize=auto;html=1;entryX=1;entryY=0.5;entryDx=0;entryDy=0;" parent="1" source="3" target="61" edge="1">
                    <mxGeometry relative="1" as="geometry">
                        <Array as="points">
                            <mxPoint x="-50" y="540"/>
                            <mxPoint x="-50" y="410"/>
                        </Array>
                    </mxGeometry>
                </mxCell>
                <mxCell id="63" style="edgeStyle=orthogonalEdgeStyle;rounded=0;orthogonalLoop=1;jettySize=auto;html=1;entryX=1;entryY=0.5;entryDx=0;entryDy=0;" parent="1" source="3" target="64" edge="1">
                    <mxGeometry relative="1" as="geometry">
                        <mxPoint y="630" as="targetPoint"/>
                        <Array as="points">
                            <mxPoint x="-50" y="540"/>
                            <mxPoint x="-50" y="479"/>
                        </Array>
                    </mxGeometry>
                </mxCell>
                <mxCell id="77" style="edgeStyle=orthogonalEdgeStyle;rounded=0;orthogonalLoop=1;jettySize=auto;html=1;entryX=1;entryY=0.5;entryDx=0;entryDy=0;" parent="1" source="3" target="78" edge="1">
                    <mxGeometry relative="1" as="geometry">
                        <mxPoint x="-170" y="650" as="targetPoint"/>
                        <Array as="points">
                            <mxPoint x="-50" y="540"/>
                            <mxPoint x="-50" y="570"/>
                        </Array>
                    </mxGeometry>
                </mxCell>
                <mxCell id="80" style="edgeStyle=orthogonalEdgeStyle;rounded=0;orthogonalLoop=1;jettySize=auto;html=1;entryX=1;entryY=0.5;entryDx=0;entryDy=0;" parent="1" source="3" target="79" edge="1">
                    <mxGeometry relative="1" as="geometry">
                        <Array as="points">
                            <mxPoint x="-50" y="540"/>
                            <mxPoint x="-50" y="640"/>
                        </Array>
                    </mxGeometry>
                </mxCell>
                <mxCell id="3" value="信源" style="rounded=0;whiteSpace=wrap;html=1;strokeColor=#006EAF;fillColor=#1ba1e2;fontColor=#ffffff;" parent="1" vertex="1">
                    <mxGeometry x="20" y="509" width="30" height="60" as="geometry"/>
                </mxCell>
                <mxCell id="16" style="edgeStyle=orthogonalEdgeStyle;rounded=0;orthogonalLoop=1;jettySize=auto;html=1;exitX=1;exitY=0.5;exitDx=0;exitDy=0;entryX=0;entryY=0.5;entryDx=0;entryDy=0;fontColor=#00FF00;" parent="1" source="4" target="5" edge="1">
                    <mxGeometry relative="1" as="geometry"/>
                </mxCell>
                <mxCell id="34" value="y" style="edgeLabel;html=1;align=center;verticalAlign=middle;resizable=0;points=[];fontColor=#00FF00;" parent="16" vertex="1" connectable="0">
                    <mxGeometry x="0.1667" relative="1" as="geometry">
                        <mxPoint x="-4.86" as="offset"/>
                    </mxGeometry>
                </mxCell>
                <mxCell id="4" value="加密" style="rounded=0;whiteSpace=wrap;html=1;fontColor=#00FF00;" parent="1" vertex="1">
                    <mxGeometry x="310" y="510" width="30" height="60" as="geometry"/>
                </mxCell>
                <mxCell id="9" value="" style="edgeStyle=orthogonalEdgeStyle;rounded=0;orthogonalLoop=1;jettySize=auto;html=1;exitX=1;exitY=0.5;exitDx=0;exitDy=0;fontColor=#00FF00;" parent="1" source="5" target="8" edge="1">
                    <mxGeometry relative="1" as="geometry">
                        <mxPoint x="460" y="540" as="sourcePoint"/>
                    </mxGeometry>
                </mxCell>
                <mxCell id="35" value="z" style="edgeLabel;html=1;align=center;verticalAlign=middle;resizable=0;points=[];fontColor=#00FF00;" parent="9" vertex="1" connectable="0">
                    <mxGeometry x="-0.3203" y="-1" relative="1" as="geometry">
                        <mxPoint x="8.64" y="-1" as="offset"/>
                    </mxGeometry>
                </mxCell>
                <mxCell id="5" value="信道编码" style="rounded=0;whiteSpace=wrap;html=1;fontColor=#00FF00;" parent="1" vertex="1">
                    <mxGeometry x="400" y="510" width="30" height="60" as="geometry"/>
                </mxCell>
                <mxCell id="17" style="edgeStyle=orthogonalEdgeStyle;rounded=0;orthogonalLoop=1;jettySize=auto;html=1;exitX=1;exitY=0.5;exitDx=0;exitDy=0;entryX=0;entryY=0.5;entryDx=0;entryDy=0;fontColor=#00FF00;" parent="1" source="8" target="10" edge="1">
                    <mxGeometry relative="1" as="geometry"/>
                </mxCell>
                <mxCell id="36" value="z'" style="edgeLabel;html=1;align=center;verticalAlign=middle;resizable=0;points=[];fontColor=#00FF00;" parent="17" vertex="1" connectable="0">
                    <mxGeometry x="-0.1374" relative="1" as="geometry">
                        <mxPoint x="3.57" as="offset"/>
                    </mxGeometry>
                </mxCell>
                <mxCell id="30" style="edgeStyle=orthogonalEdgeStyle;rounded=0;orthogonalLoop=1;jettySize=auto;html=1;exitX=1;exitY=0.25;exitDx=0;exitDy=0;entryX=0.5;entryY=1;entryDx=0;entryDy=0;fontColor=#00FF00;" parent="1" source="8" target="24" edge="1">
                    <mxGeometry relative="1" as="geometry"/>
                </mxCell>
                <mxCell id="47" value="" style="edgeStyle=orthogonalEdgeStyle;rounded=0;orthogonalLoop=1;jettySize=auto;html=1;" parent="1" source="8" target="46" edge="1">
                    <mxGeometry relative="1" as="geometry"/>
                </mxCell>
                <mxCell id="8" value="信道" style="rounded=0;whiteSpace=wrap;html=1;fontColor=#ffffff;fillColor=#1ba1e2;strokeColor=#006EAF;" parent="1" vertex="1">
                    <mxGeometry x="496.5" y="510" width="30" height="60" as="geometry"/>
                </mxCell>
                <mxCell id="18" style="edgeStyle=orthogonalEdgeStyle;rounded=0;orthogonalLoop=1;jettySize=auto;html=1;exitX=1;exitY=0.5;exitDx=0;exitDy=0;entryX=0;entryY=0.5;entryDx=0;entryDy=0;fontColor=#00FF00;" parent="1" source="10" target="11" edge="1">
                    <mxGeometry relative="1" as="geometry"/>
                </mxCell>
                <mxCell id="38" value="y'" style="edgeLabel;html=1;align=center;verticalAlign=middle;resizable=0;points=[];fontColor=#00FF00;" parent="18" vertex="1" connectable="0">
                    <mxGeometry x="-0.2867" y="1" relative="1" as="geometry">
                        <mxPoint as="offset"/>
                    </mxGeometry>
                </mxCell>
                <mxCell id="10" value="信道解码" style="rounded=0;whiteSpace=wrap;html=1;fontColor=#00FF00;" parent="1" vertex="1">
                    <mxGeometry x="600" y="510" width="30" height="60" as="geometry"/>
                </mxCell>
                <mxCell id="19" style="edgeStyle=orthogonalEdgeStyle;rounded=0;orthogonalLoop=1;jettySize=auto;html=1;exitX=1;exitY=0.5;exitDx=0;exitDy=0;entryX=0;entryY=0.5;entryDx=0;entryDy=0;fontColor=#00FF00;" parent="1" source="11" target="12" edge="1">
                    <mxGeometry relative="1" as="geometry"/>
                </mxCell>
                <mxCell id="39" value="x'" style="edgeLabel;html=1;align=center;verticalAlign=middle;resizable=0;points=[];fontColor=#00FF00;" parent="19" vertex="1" connectable="0">
                    <mxGeometry x="-0.1905" relative="1" as="geometry">
                        <mxPoint as="offset"/>
                    </mxGeometry>
                </mxCell>
                <mxCell id="11" value="解密" style="rounded=0;whiteSpace=wrap;html=1;fontColor=#00FF00;" parent="1" vertex="1">
                    <mxGeometry x="690" y="510" width="30" height="60" as="geometry"/>
                </mxCell>
                <mxCell id="20" style="edgeStyle=orthogonalEdgeStyle;rounded=0;orthogonalLoop=1;jettySize=auto;html=1;exitX=1;exitY=0.5;exitDx=0;exitDy=0;entryX=0;entryY=0.5;entryDx=0;entryDy=0;fontColor=#00FF00;" parent="1" source="12" target="13" edge="1">
                    <mxGeometry relative="1" as="geometry"/>
                </mxCell>
                <mxCell id="40" value="u'" style="edgeLabel;html=1;align=center;verticalAlign=middle;resizable=0;points=[];fontColor=#00FF00;" parent="20" vertex="1" connectable="0">
                    <mxGeometry x="-0.243" relative="1" as="geometry">
                        <mxPoint as="offset"/>
                    </mxGeometry>
                </mxCell>
                <mxCell id="12" value="信源解码" style="rounded=0;whiteSpace=wrap;html=1;fontColor=#00FF00;" parent="1" vertex="1">
                    <mxGeometry x="780" y="510" width="30" height="60" as="geometry"/>
                </mxCell>
                <mxCell id="49" value="" style="edgeStyle=orthogonalEdgeStyle;rounded=0;orthogonalLoop=1;jettySize=auto;html=1;" parent="1" source="13" target="48" edge="1">
                    <mxGeometry relative="1" as="geometry"/>
                </mxCell>
                <mxCell id="13" value="信宿" style="rounded=0;whiteSpace=wrap;html=1;fontColor=#ffffff;fillColor=#1ba1e2;strokeColor=#006EAF;" parent="1" vertex="1">
                    <mxGeometry x="870" y="510" width="30" height="60" as="geometry"/>
                </mxCell>
                <mxCell id="27" style="edgeStyle=orthogonalEdgeStyle;rounded=0;orthogonalLoop=1;jettySize=auto;html=1;exitX=0.5;exitY=1;exitDx=0;exitDy=0;entryX=0.5;entryY=0;entryDx=0;entryDy=0;fontColor=#00FF00;" parent="1" source="21" target="4" edge="1">
                    <mxGeometry relative="1" as="geometry">
                        <Array as="points">
                            <mxPoint x="325" y="460"/>
                            <mxPoint x="325" y="460"/>
                        </Array>
                    </mxGeometry>
                </mxCell>
                <mxCell id="41" value="k" style="edgeLabel;html=1;align=center;verticalAlign=middle;resizable=0;points=[];fontColor=#00FF00;" parent="27" vertex="1" connectable="0">
                    <mxGeometry x="-0.1784" relative="1" as="geometry">
                        <mxPoint as="offset"/>
                    </mxGeometry>
                </mxCell>
                <mxCell id="21" value="加密密钥" style="rounded=0;whiteSpace=wrap;html=1;fontColor=#00FF00;" parent="1" vertex="1">
                    <mxGeometry x="310" y="380" width="30" height="60" as="geometry"/>
                </mxCell>
                <mxCell id="28" style="edgeStyle=orthogonalEdgeStyle;rounded=0;orthogonalLoop=1;jettySize=auto;html=1;entryX=0.5;entryY=0;entryDx=0;entryDy=0;fontColor=#00FF00;" parent="1" target="11" edge="1">
                    <mxGeometry relative="1" as="geometry">
                        <mxPoint x="705" y="500" as="targetPoint"/>
                        <mxPoint x="705" y="407" as="sourcePoint"/>
                        <Array as="points">
                            <mxPoint x="705" y="407"/>
                        </Array>
                    </mxGeometry>
                </mxCell>
                <mxCell id="42" value="k" style="edgeLabel;html=1;align=center;verticalAlign=middle;resizable=0;points=[];fontColor=#00FF00;" parent="28" vertex="1" connectable="0">
                    <mxGeometry x="-0.171" relative="1" as="geometry">
                        <mxPoint y="20.22" as="offset"/>
                    </mxGeometry>
                </mxCell>
                <mxCell id="22" value="解密密钥" style="rounded=0;whiteSpace=wrap;html=1;fontColor=#00FF00;" parent="1" vertex="1">
                    <mxGeometry x="690" y="380" width="30" height="60" as="geometry"/>
                </mxCell>
                <mxCell id="29" style="edgeStyle=orthogonalEdgeStyle;rounded=0;orthogonalLoop=1;jettySize=auto;html=1;entryX=0.5;entryY=0;entryDx=0;entryDy=0;fontColor=#00FF00;" parent="1" source="23" target="8" edge="1">
                    <mxGeometry relative="1" as="geometry"/>
                </mxCell>
                <mxCell id="51" value="" style="edgeStyle=orthogonalEdgeStyle;rounded=0;orthogonalLoop=1;jettySize=auto;html=1;" parent="1" source="23" target="50" edge="1">
                    <mxGeometry relative="1" as="geometry"/>
                </mxCell>
                <mxCell id="23" value="干扰源" style="rounded=0;whiteSpace=wrap;html=1;fontColor=#ffffff;fillColor=#1ba1e2;strokeColor=#006EAF;" parent="1" vertex="1">
                    <mxGeometry x="461.5" y="330" width="100" height="34" as="geometry"/>
                </mxCell>
                <mxCell id="24" value="窃听者" style="rounded=0;whiteSpace=wrap;html=1;fontColor=#00FF00;" parent="1" vertex="1">
                    <mxGeometry x="520" y="460" width="70" height="20" as="geometry"/>
                </mxCell>
                <mxCell id="44" value="信息量的度量" style="whiteSpace=wrap;html=1;rounded=0;" parent="1" vertex="1">
                    <mxGeometry x="-25" y="700" width="120" height="60" as="geometry"/>
                </mxCell>
                <mxCell id="46" value="信道容量的大小" style="whiteSpace=wrap;html=1;rounded=0;" parent="1" vertex="1">
                    <mxGeometry x="451.5" y="650" width="120" height="60" as="geometry"/>
                </mxCell>
                <mxCell id="48" value="信息量的解析度" style="whiteSpace=wrap;html=1;rounded=0;" parent="1" vertex="1">
                    <mxGeometry x="825" y="650" width="120" height="60" as="geometry"/>
                </mxCell>
                <mxCell id="50" value="1. 干扰的性质&lt;br&gt;2. 干扰的大小&lt;br&gt;对通信系统的影响度" style="whiteSpace=wrap;html=1;rounded=0;" parent="1" vertex="1">
                    <mxGeometry x="451.5" y="233" width="120" height="60" as="geometry"/>
                </mxCell>
                <mxCell id="57" value="" style="edgeStyle=orthogonalEdgeStyle;rounded=0;orthogonalLoop=1;jettySize=auto;html=1;fontColor=#00FF00;entryX=0.5;entryY=1;entryDx=0;entryDy=0;" parent="1" source="54" target="59" edge="1">
                    <mxGeometry relative="1" as="geometry">
                        <mxPoint x="170" y="300" as="targetPoint"/>
                    </mxGeometry>
                </mxCell>
                <mxCell id="54" value="密钥源" style="whiteSpace=wrap;html=1;rounded=1;fontColor=#ffffff;fillColor=#1ba1e2;strokeColor=#006EAF;" parent="1" vertex="1">
                    <mxGeometry x="110" y="380" width="120" height="60" as="geometry"/>
                </mxCell>
                <mxCell id="59" value="" style="rounded=0;whiteSpace=wrap;html=1;fontColor=#00FF00;" parent="1" vertex="1">
                    <mxGeometry x="110" y="233" width="120" height="60" as="geometry"/>
                </mxCell>
                <mxCell id="60" value="香农信息论：运用概率论和随机过程的理论来研究信息" style="rounded=0;whiteSpace=wrap;html=1;fontColor=#00FF00;" parent="1" vertex="1">
                    <mxGeometry x="210" y="780" width="120" height="60" as="geometry"/>
                </mxCell>
                <mxCell id="67" value="" style="rounded=0;orthogonalLoop=1;jettySize=auto;html=1;" parent="1" source="61" target="65" edge="1">
                    <mxGeometry relative="1" as="geometry"/>
                </mxCell>
                <mxCell id="68" style="rounded=0;orthogonalLoop=1;jettySize=auto;html=1;entryX=1;entryY=0.5;entryDx=0;entryDy=0;" parent="1" source="61" target="69" edge="1">
                    <mxGeometry relative="1" as="geometry">
                        <mxPoint x="-340" y="454" as="targetPoint"/>
                    </mxGeometry>
                </mxCell>
                <mxCell id="61" value="无记忆信源" style="whiteSpace=wrap;html=1;rounded=0;fontColor=#ffffff;strokeColor=#006EAF;fillColor=#1ba1e2;" parent="1" vertex="1">
                    <mxGeometry x="-260" y="380" width="120" height="60" as="geometry"/>
                </mxCell>
                <mxCell id="64" value="有记忆信源" style="whiteSpace=wrap;html=1;rounded=0;fontColor=#ffffff;strokeColor=#006EAF;fillColor=#1ba1e2;" parent="1" vertex="1">
                    <mxGeometry x="-260" y="449" width="120" height="60" as="geometry"/>
                </mxCell>
                <mxCell id="65" value="发出单个符号的无记忆信源" style="whiteSpace=wrap;html=1;rounded=0;fontColor=#ffffff;strokeColor=#006EAF;fillColor=#1ba1e2;" parent="1" vertex="1">
                    <mxGeometry x="-580" y="370" width="230" height="30" as="geometry"/>
                </mxCell>
                <mxCell id="69" value="发出符号序列的无记忆信源" style="whiteSpace=wrap;html=1;rounded=0;fontColor=#ffffff;strokeColor=#006EAF;fillColor=#1ba1e2;" parent="1" vertex="1">
                    <mxGeometry x="-580" y="404" width="230" height="30" as="geometry"/>
                </mxCell>
                <mxCell id="75" style="rounded=0;orthogonalLoop=1;jettySize=auto;html=1;" parent="1" source="64" target="73" edge="1">
                    <mxGeometry relative="1" as="geometry"/>
                </mxCell>
                <mxCell id="73" value="发出符号序列的有记忆信源" style="whiteSpace=wrap;html=1;rounded=0;fontColor=#ffffff;strokeColor=#006EAF;fillColor=#1ba1e2;" parent="1" vertex="1">
                    <mxGeometry x="-580" y="440" width="230" height="30" as="geometry"/>
                </mxCell>
                <mxCell id="76" style="rounded=0;orthogonalLoop=1;jettySize=auto;html=1;exitX=0;exitY=0.5;exitDx=0;exitDy=0;" parent="1" source="64" target="74" edge="1">
                    <mxGeometry relative="1" as="geometry"/>
                </mxCell>
                <mxCell id="74" value="发出符号序列的马尔科夫信源" style="whiteSpace=wrap;html=1;rounded=0;fontColor=#ffffff;strokeColor=#006EAF;fillColor=#1ba1e2;" parent="1" vertex="1">
                    <mxGeometry x="-580" y="479" width="230" height="30" as="geometry"/>
                </mxCell>
                <mxCell id="78" value="离散信源" style="whiteSpace=wrap;html=1;rounded=0;fontColor=#ffffff;strokeColor=#006EAF;fillColor=#1ba1e2;" parent="1" vertex="1">
                    <mxGeometry x="-260" y="540" width="120" height="60" as="geometry"/>
                </mxCell>
                <mxCell id="79" value="连续信源" style="whiteSpace=wrap;html=1;rounded=0;fontColor=#ffffff;strokeColor=#006EAF;fillColor=#1ba1e2;" parent="1" vertex="1">
                    <mxGeometry x="-260" y="610" width="120" height="60" as="geometry"/>
                </mxCell>
                <mxCell id="82" value="平稳的随机序列" style="rounded=0;whiteSpace=wrap;html=1;fontColor=#00FF00;" parent="1" vertex="1">
                    <mxGeometry x="-1330" y="370" width="120" height="60" as="geometry"/>
                </mxCell>
                <mxCell id="84" value="强平稳信源" style="rounded=0;whiteSpace=wrap;html=1;fontColor=#00FF00;" parent="1" vertex="1">
                    <mxGeometry x="-1400" y="440" width="120" height="60" as="geometry"/>
                </mxCell>
                <mxCell id="85" value="弱平稳信源" style="rounded=0;whiteSpace=wrap;html=1;fontColor=#00FF00;" parent="1" vertex="1">
                    <mxGeometry x="-1250" y="440" width="120" height="60" as="geometry"/>
                </mxCell>
                <mxCell id="86" value="离散无记忆信源 X 的L次扩展信源" style="rounded=0;whiteSpace=wrap;html=1;fontColor=#00FF00;" parent="1" vertex="1">
                    <mxGeometry x="-1500" y="550" width="200" height="60" as="geometry"/>
                </mxCell>
                <mxCell id="88" value="独立同分布信源" style="rounded=0;whiteSpace=wrap;html=1;fontColor=#00FF00;" parent="1" vertex="1">
                    <mxGeometry x="-1140" y="550" width="120" height="60" as="geometry"/>
                </mxCell>
                <mxCell id="89" value="离散平稳无记忆信源" style="rounded=0;whiteSpace=wrap;html=1;fontColor=#00FF00;" parent="1" vertex="1">
                    <mxGeometry x="-1280" y="610" width="130" height="60" as="geometry"/>
                </mxCell>
                <mxCell id="90" value="离散数字信号" style="rounded=0;whiteSpace=wrap;html=1;fontColor=#00FF00;" parent="1" vertex="1">
                    <mxGeometry x="-1540" y="850" width="200" height="60" as="geometry"/>
                </mxCell>
                <mxCell id="109" style="edgeStyle=none;rounded=1;orthogonalLoop=1;jettySize=auto;html=1;entryX=0.5;entryY=1;entryDx=0;entryDy=0;shadow=0;startArrow=none;startFill=0;sourcePerimeterSpacing=0;targetPerimeterSpacing=0;shape=flexArrow;" parent="1" source="91" target="90" edge="1">
                    <mxGeometry relative="1" as="geometry"/>
                </mxCell>
                <mxCell id="110" value="采样、量化" style="edgeLabel;html=1;align=center;verticalAlign=middle;resizable=0;points=[];" parent="109" vertex="1" connectable="0">
                    <mxGeometry x="-0.1378" y="-2" relative="1" as="geometry">
                        <mxPoint x="-2" y="-10.5" as="offset"/>
                    </mxGeometry>
                </mxCell>
                <mxCell id="91" value="模拟数字信号" style="rounded=0;whiteSpace=wrap;html=1;fontColor=#00FF00;" parent="1" vertex="1">
                    <mxGeometry x="-1540" y="1060" width="200" height="60" as="geometry"/>
                </mxCell>
                <mxCell id="95" style="edgeStyle=orthogonalEdgeStyle;rounded=0;orthogonalLoop=1;jettySize=auto;html=1;" parent="1" source="92" target="93" edge="1">
                    <mxGeometry relative="1" as="geometry"/>
                </mxCell>
                <mxCell id="96" style="edgeStyle=orthogonalEdgeStyle;rounded=0;orthogonalLoop=1;jettySize=auto;html=1;entryX=0.5;entryY=1;entryDx=0;entryDy=0;" parent="1" source="92" target="94" edge="1">
                    <mxGeometry relative="1" as="geometry"/>
                </mxCell>
                <mxCell id="92" value="随机过程" style="rounded=0;whiteSpace=wrap;html=1;fontColor=#00FF00;" parent="1" vertex="1">
                    <mxGeometry x="-930" y="840" width="80" height="60" as="geometry"/>
                </mxCell>
                <mxCell id="101" value="" style="edgeStyle=orthogonalEdgeStyle;rounded=0;orthogonalLoop=1;jettySize=auto;html=1;" parent="1" source="93" target="100" edge="1">
                    <mxGeometry relative="1" as="geometry"/>
                </mxCell>
                <mxCell id="93" value="平稳随机过程" style="rounded=0;whiteSpace=wrap;html=1;fontColor=#00FF00;" parent="1" vertex="1">
                    <mxGeometry x="-810" y="810" width="100" height="60" as="geometry"/>
                </mxCell>
                <mxCell id="94" value="非平稳随机过程" style="rounded=0;whiteSpace=wrap;html=1;fontColor=#00FF00;direction=south;" parent="1" vertex="1">
                    <mxGeometry x="-810" y="880" width="100" height="60" as="geometry"/>
                </mxCell>
                <mxCell id="103" value="" style="edgeStyle=orthogonalEdgeStyle;rounded=0;orthogonalLoop=1;jettySize=auto;html=1;" parent="1" source="100" target="102" edge="1">
                    <mxGeometry relative="1" as="geometry"/>
                </mxCell>
                <mxCell id="100" value="遍历过程" style="rounded=0;whiteSpace=wrap;html=1;fontColor=#00FF00;" parent="1" vertex="1">
                    <mxGeometry x="-630" y="810" width="100" height="60" as="geometry"/>
                </mxCell>
                <mxCell id="102" value="随机波型信源" style="rounded=0;whiteSpace=wrap;html=1;fontColor=#00FF00;" parent="1" vertex="1">
                    <mxGeometry x="-470" y="810" width="100" height="60" as="geometry"/>
                </mxCell>
                <mxCell id="104" style="orthogonalLoop=1;jettySize=auto;html=1;rounded=1;targetPerimeterSpacing=6;sourcePerimeterSpacing=6;exitX=0.5;exitY=0;exitDx=0;exitDy=0;exitPerimeter=0;shadow=0;startArrow=classic;startFill=1;entryX=0.5;entryY=1;entryDx=0;entryDy=0;" parent="1" source="102" target="105" edge="1">
                    <mxGeometry relative="1" as="geometry">
                        <mxPoint x="-440" y="730" as="targetPoint"/>
                    </mxGeometry>
                </mxCell>
                <mxCell id="105" value="时间离散的连续信源" style="rounded=0;whiteSpace=wrap;html=1;fontColor=#00FF00;" parent="1" vertex="1">
                    <mxGeometry x="-490" y="670" width="140" height="60" as="geometry"/>
                </mxCell>
                <mxCell id="112" value="时域采样定理离散化" style="rounded=0;whiteSpace=wrap;html=1;fontColor=#00FF00;" parent="1" vertex="1">
                    <mxGeometry x="-1820" y="920" width="200" height="60" as="geometry"/>
                </mxCell>
                <mxCell id="114" value="频域采样定理离散化" style="rounded=0;whiteSpace=wrap;html=1;fontColor=#00FF00;" parent="1" vertex="1">
                    <mxGeometry x="-1820" y="1000" width="200" height="60" as="geometry"/>
                </mxCell>
                <mxCell id="116" style="edgeStyle=orthogonalEdgeStyle;rounded=0;orthogonalLoop=1;jettySize=auto;html=1;" parent="1" source="115" edge="1">
                    <mxGeometry relative="1" as="geometry">
                        <mxPoint x="-875" y="290" as="targetPoint"/>
                    </mxGeometry>
                </mxCell>
                <mxCell id="117" value="矢量分析转状态分析" style="edgeLabel;html=1;align=center;verticalAlign=middle;resizable=0;points=[];" parent="116" vertex="1" connectable="0">
                    <mxGeometry x="-0.1278" y="-1" relative="1" as="geometry">
                        <mxPoint as="offset"/>
                    </mxGeometry>
                </mxCell>
                <mxCell id="115" value="马尔科夫（Markov）链" style="rounded=0;whiteSpace=wrap;html=1;" parent="1" vertex="1">
                    <mxGeometry x="-970" y="130" width="190" height="40" as="geometry"/>
                </mxCell>
                <mxCell id="118" value="" style="endArrow=none;html=1;" parent="1" edge="1">
                    <mxGeometry width="50" height="50" relative="1" as="geometry">
                        <mxPoint x="-1030" y="940" as="sourcePoint"/>
                        <mxPoint x="-1030" y="940" as="targetPoint"/>
                        <Array as="points">
                            <mxPoint x="-1030" y="970"/>
                            <mxPoint x="-1110" y="970"/>
                            <mxPoint x="-1170" y="1020"/>
                            <mxPoint x="-1210" y="1020"/>
                            <mxPoint x="-1150" y="970"/>
                            <mxPoint x="-1270" y="970"/>
                            <mxPoint x="-1270" y="940"/>
                            <mxPoint x="-1270" y="910"/>
                            <mxPoint x="-1190" y="910"/>
                            <mxPoint x="-1130" y="860"/>
                            <mxPoint x="-1090" y="860"/>
                            <mxPoint x="-1150" y="910"/>
                            <mxPoint x="-1030" y="910"/>
                        </Array>
                    </mxGeometry>
                </mxCell>
                <mxCell id="119" value="H(X)" style="text;html=1;align=center;verticalAlign=middle;resizable=0;points=[];autosize=1;" vertex="1" parent="1">
                    <mxGeometry x="-1310" y="930" width="40" height="20" as="geometry"/>
                </mxCell>
                <mxCell id="122" value="H(X|Y)疑义度" style="text;html=1;align=center;verticalAlign=middle;resizable=0;points=[];autosize=1;" vertex="1" parent="1">
                    <mxGeometry x="-1155" y="840" width="90" height="20" as="geometry"/>
                </mxCell>
                <mxCell id="123" value="H(Y)" style="text;html=1;align=center;verticalAlign=middle;resizable=0;points=[];autosize=1;" vertex="1" parent="1">
                    <mxGeometry x="-1030" y="930" width="40" height="20" as="geometry"/>
                </mxCell>
                <mxCell id="124" value="H(Y|X)噪声熵" style="text;html=1;align=center;verticalAlign=middle;resizable=0;points=[];autosize=1;" vertex="1" parent="1">
                    <mxGeometry x="-1235" y="1019" width="90" height="20" as="geometry"/>
                </mxCell>
                <mxCell id="125" value="I(X ; Y)" style="text;html=1;align=center;verticalAlign=middle;resizable=0;points=[];autosize=1;" vertex="1" parent="1">
                    <mxGeometry x="-1170" y="930" width="50" height="20" as="geometry"/>
                </mxCell>
                <mxCell id="133" value="" style="ellipse;whiteSpace=wrap;html=1;aspect=fixed;fillColor=none;" vertex="1" parent="1">
                    <mxGeometry x="-1235" y="1220" width="130" height="130" as="geometry"/>
                </mxCell>
                <mxCell id="134" value="" style="ellipse;whiteSpace=wrap;html=1;aspect=fixed;fillColor=none;" vertex="1" parent="1">
                    <mxGeometry x="-1155" y="1225.5" width="119" height="119" as="geometry"/>
                </mxCell>
                <mxCell id="135" value="" style="shape=partialRectangle;whiteSpace=wrap;html=1;bottom=1;right=1;left=1;top=0;fillColor=none;routingCenterX=-0.5;" vertex="1" parent="1">
                    <mxGeometry x="-1250" y="1341" width="230" height="19" as="geometry"/>
                </mxCell>
                <mxCell id="136" value="H(X , Y)" style="text;html=1;align=center;verticalAlign=middle;resizable=0;points=[];autosize=1;" vertex="1" parent="1">
                    <mxGeometry x="-1165" y="1360" width="60" height="20" as="geometry"/>
                </mxCell>
                <mxCell id="137" value="H(X | Y)" style="text;html=1;align=center;verticalAlign=middle;resizable=0;points=[];autosize=1;" vertex="1" parent="1">
                    <mxGeometry x="-1215" y="1275" width="60" height="20" as="geometry"/>
                </mxCell>
                <mxCell id="138" value="H(Y | X)" style="text;html=1;align=center;verticalAlign=middle;resizable=0;points=[];autosize=1;" vertex="1" parent="1">
                    <mxGeometry x="-1096" y="1275" width="60" height="20" as="geometry"/>
                </mxCell>
                <mxCell id="139" value="I(X ; Y)" style="text;html=1;align=center;verticalAlign=middle;resizable=0;points=[];autosize=1;" vertex="1" parent="1">
                    <mxGeometry x="-1156" y="1275" width="50" height="20" as="geometry"/>
                </mxCell>
                <mxCell id="140" value="H(X)" style="text;html=1;align=center;verticalAlign=middle;resizable=0;points=[];autosize=1;" vertex="1" parent="1">
                    <mxGeometry x="-1190" y="1200" width="40" height="20" as="geometry"/>
                </mxCell>
                <mxCell id="141" value="H(Y)" style="text;html=1;align=center;verticalAlign=middle;resizable=0;points=[];autosize=1;" vertex="1" parent="1">
                    <mxGeometry x="-1115" y="1205.5" width="40" height="20" as="geometry"/>
                </mxCell>
            </root>
        </mxGraphModel>
    </diagram>
</mxfile>